<svg version="1.2" xmlns="http://www.w3.org/2000/svg" viewBox="0 0 114 115" width="114" height="115">
	<defs>
		<linearGradient id="g1" x2="1" gradientUnits="userSpaceOnUse" gradientTransform="matrix(-1.123,-63.161,63.161,-1.123,47.494,115.672)">
			<stop offset="0" stop-color="#ffffff" stop-opacity=".15"/>
			<stop offset="1" stop-color="#ffffff" stop-opacity=".89"/>
		</linearGradient>
	</defs>
	<style>
		.s0 { fill: #53aa00 } 
		.s1 { fill: none;stroke: url(#g1) } 
		.s2 { fill: #ffffff } 
	</style>
	<g>
		<path fill-rule="evenodd" class="s0" d="m53.9 5.56c-30.4 0-55.05 24.65-55.05 55.06 0 30.4 24.65 55.05 55.05 55.05 30.41 0 55.06-24.65 55.06-55.05 0-30.41-24.65-55.06-55.06-55.06z"/>
		<path fill-rule="evenodd" class="s1" d="m53.9 6.06c-30.13 0-54.55 24.43-54.55 54.56 0 30.13 24.42 54.55 54.55 54.55 30.13 0 54.56-24.42 54.56-54.55 0-30.13-24.43-54.56-54.56-54.56z"/>
	</g>
	<path class="s2" d="m53.56 93.31c-8.07 0-15.67-3.15-21.37-8.86-5.72-5.71-8.86-13.3-8.86-21.38 0-8.07 3.14-15.66 8.85-21.37 8.54-8.55 21.32-11.18 32.56-6.72l-1.01 2.54c-10.22-4.05-21.84-1.65-29.61 6.12-5.2 5.19-8.05 12.09-8.05 19.43 0 7.35 2.85 14.25 8.05 19.44 5.19 5.2 12.09 8.05 19.44 8.05 7.34 0 14.24-2.85 19.43-8.05 7.79-7.78 10.19-19.43 6.1-29.66l2.54-1.01c4.5 11.24 1.87 24.05-6.7 32.61-5.7 5.71-13.3 8.86-21.37 8.86z"/>
	<path class="s2" d="m53.56 82.88c-5.29 0-10.26-2.06-14-5.8-7.71-7.72-7.71-20.28 0-28 5.35-5.35 13.41-7.19 20.54-4.7l-0.9 2.59c-6.15-2.15-13.09-0.56-17.69 4.04-6.66 6.66-6.66 17.48 0 24.13 3.22 3.22 7.51 5 12.06 5 4.55 0 8.84-1.78 12.06-5 4.6-4.6 6.19-11.55 4.04-17.7l2.59-0.9c2.49 7.14 0.64 15.2-4.7 20.54-3.74 3.74-8.72 5.8-14 5.8z"/>
	<path class="s2" d="m53.56 72.45c-2.5 0-4.85-0.97-6.62-2.75-3.66-3.65-3.66-9.59 0-13.25 1.39-1.39 3.15-2.29 5.09-2.61l0.44 2.7c-1.37 0.23-2.61 0.87-3.6 1.85-2.58 2.59-2.58 6.79 0 9.38 1.25 1.25 2.92 1.94 4.69 1.94 1.77 0 3.44-0.69 4.69-1.94 0.99-0.99 1.63-2.24 1.85-3.61l2.7 0.45c-0.32 1.94-1.22 3.7-2.62 5.09-1.77 1.77-4.12 2.75-6.63 2.75z"/>
	<path class="s2" d="m54.53 64.05l-1.94-1.94 13.51-13.51-1.42-4.98c-0.14-0.48 0-0.99 0.34-1.35l9.05-9.04c0.33-0.33 0.82-0.48 1.28-0.36 0.46 0.1 0.84 0.44 0.99 0.88l1.67 4.89 5.07 1.84c0.44 0.17 0.77 0.54 0.87 0.99 0.1 0.46-0.04 0.94-0.37 1.27l-8.93 8.93c-0.35 0.35-0.86 0.48-1.34 0.35l-5.27-1.49zm14.22-16.15l4.53 1.28 6.84-6.85-3.66-1.33c-0.39-0.14-0.69-0.45-0.83-0.84l-1.18-3.43-6.92 6.92z"/>
</svg>