<svg version="1.2" xmlns="http://www.w3.org/2000/svg" viewBox="0 0 110 115" width="110" height="115">
	<defs>
		<linearGradient id="g1" x2="1" gradientUnits="userSpaceOnUse" gradientTransform="matrix(-1.123,-63.161,63.161,-1.123,47.304,115.672)">
			<stop offset="0" stop-color="#ffffff" stop-opacity=".15"/>
			<stop offset="1" stop-color="#ffffff" stop-opacity=".89"/>
		</linearGradient>
	</defs>
	<style>
		.s0 { fill: #53aa00 } 
		.s1 { fill: none;stroke: url(#g1) } 
		.s2 { fill: #ffffff } 
	</style>
	<g>
		<path fill-rule="evenodd" class="s0" d="m53.71 5.56c-30.4 0-55.05 24.65-55.05 55.06 0 30.4 24.65 55.05 55.05 55.05 30.41 0 55.06-24.65 55.06-55.05 0-30.41-24.65-55.06-55.06-55.06z"/>
		<path fill-rule="evenodd" class="s1" d="m53.71 6.06c-30.13 0-54.55 24.43-54.55 54.56 0 30.13 24.42 54.55 54.55 54.55 30.13 0 54.56-24.42 54.56-54.55 0-30.13-24.43-54.56-54.56-54.56z"/>
	</g>
	<path class="s2" d="m89.94 61.87c-0.11-0.21-11.47-19.89-35.98-19.89-24.51 0-35.87 19.68-35.98 19.89-0.2 0.36-0.2 0.82 0 1.18 0.11 0.2 11.47 19.88 35.98 19.88 24.51 0 35.87-19.68 35.98-19.88 0.2-0.36 0.2-0.82 0-1.18zm-69.5 0.59c1.58-2.46 8.31-11.86 20.83-16.04-4.74 3.76-7.78 9.54-7.78 16.04 0 6.49 3.04 12.27 7.76 16.02-12.47-4.2-19.22-13.58-20.8-16.04zm33.52-18.06c9.96 0 18.07 8.1 18.07 18.06 0 9.96-8.11 18.07-18.07 18.07-9.96 0-18.06-8.11-18.06-18.07 0-9.96 8.1-18.06 18.06-18.06zm12.7 34.09c4.73-3.75 7.78-9.53 7.78-16.03 0-6.49-3.05-12.27-7.77-16.02 12.48 4.2 19.22 13.58 20.8 16.04-1.58 2.45-8.31 11.85-20.82 16.03z"/>
	<path class="s2" d="m53.96 73.3c5.97 0 10.84-4.87 10.84-10.84q-0.02-2.31-0.95-4.39c0.59-0.79 0.95-1.78 0.95-2.84 0-2.66-2.16-4.82-4.82-4.82-1.38 0-2.62 0.59-3.5 1.53-0.83-0.19-1.68-0.32-2.52-0.32-5.97 0-10.84 4.86-10.84 10.84 0 5.97 4.87 10.84 10.84 10.84zm6.02-20.48c1.33 0 2.41 1.09 2.41 2.41 0 1.32-1.08 2.41-2.41 2.41-1.32 0-2.41-1.09-2.41-2.41 0-1.32 1.09-2.41 2.41-2.41zm-6.02 1.21q0.67 0 1.34 0.1-0.13 0.52-0.14 1.1c0 2.66 2.16 4.82 4.82 4.82q1.02-0.01 1.92-0.4 0.49 1.34 0.49 2.81c0 4.65-3.78 8.43-8.43 8.43-4.65 0-8.43-3.78-8.43-8.43 0-4.65 3.78-8.43 8.43-8.43z"/>
	<path class="s2" d="m53.96 39.57c0.66 0 1.2-0.54 1.2-1.2v-7.23c0-0.66-0.54-1.2-1.2-1.2-0.66 0-1.2 0.54-1.2 1.2v7.23c0 0.66 0.54 1.2 1.2 1.2z"/>
	<path class="s2" d="m53.96 85.34c-0.66 0-1.2 0.54-1.2 1.21v7.22c0 0.67 0.54 1.21 1.2 1.21 0.66 0 1.2-0.54 1.2-1.21v-7.22c0-0.67-0.54-1.21-1.2-1.21z"/>
	<path class="s2" d="m74.55 81.33c-0.47-0.47-1.23-0.47-1.7 0-0.47 0.47-0.47 1.23 0 1.7l5.36 5.36q0.37 0.35 0.85 0.35 0.48-0.01 0.86-0.35c0.47-0.47 0.47-1.23 0-1.7l-5.36-5.36z"/>
	<path class="s2" d="m33.38 43.58q0.37 0.36 0.85 0.35 0.48 0 0.86-0.35c0.47-0.47 0.47-1.23 0-1.7l-5.36-5.36c-0.47-0.46-1.23-0.46-1.7 0-0.47 0.47-0.47 1.23 0 1.7l5.36 5.36z"/>
	<path class="s2" d="m33.38 81.33l-5.36 5.36c-0.47 0.47-0.47 1.23 0 1.7q0.37 0.35 0.85 0.35 0.48-0.01 0.86-0.35l5.36-5.36c0.47-0.47 0.47-1.23 0-1.7-0.47-0.47-1.23-0.47-1.7 0z"/>
	<path class="s2" d="m73.69 43.93q0.48 0 0.86-0.35l5.36-5.36c0.47-0.47 0.47-1.23 0-1.7-0.47-0.46-1.23-0.46-1.7 0l-5.36 5.36c-0.47 0.47-0.47 1.23 0 1.7q0.37 0.36 0.85 0.35z"/>
</svg>